<svg width="24" height="24" viewBox="0 0 24 24" fill="none" xmlns="http://www.w3.org/2000/svg">
<g id="SVG" clip-path="url(#clip0_2312_10086)">
<path id="Vector" d="M13.7325 1.22299L14.3115 2.84999C14.3978 3.09245 14.534 3.31411 14.7113 3.50065C14.8886 3.68719 15.1031 3.83446 15.3409 3.93294C15.5786 4.03143 15.8344 4.07893 16.0917 4.0724C16.349 4.06586 16.602 4.00542 16.8345 3.89499L18.3945 3.15399C19.9575 2.41099 21.5885 4.04199 20.8455 5.60499L20.1045 7.16499C19.9937 7.3974 19.9331 7.6505 19.9264 7.90787C19.9197 8.16523 19.9671 8.42114 20.0656 8.659C20.1642 8.89686 20.3115 9.11137 20.4983 9.28863C20.685 9.46589 20.9068 9.60195 21.1495 9.68799L22.7765 10.266C24.4065 10.846 24.4065 13.152 22.7765 13.733L21.1495 14.312C20.907 14.3983 20.6854 14.5345 20.4988 14.7118C20.3123 14.8891 20.165 15.1036 20.0665 15.3414C19.9681 15.5791 19.9206 15.8349 19.9271 16.0922C19.9336 16.3495 19.9941 16.6025 20.1045 16.835L20.8455 18.395C21.5885 19.958 19.9575 21.589 18.3945 20.846L16.8345 20.105C16.6021 19.9944 16.3491 19.9338 16.0918 19.9271C15.8346 19.9204 15.5788 19.9678 15.3409 20.0662C15.1031 20.1646 14.8886 20.3118 14.7113 20.4983C14.534 20.6849 14.3978 20.9065 14.3115 21.149L13.7325 22.777C13.1525 24.407 10.8465 24.407 10.2665 22.777L9.6875 21.149C9.6011 20.9066 9.46482 20.6851 9.28746 20.4986C9.11011 20.3122 8.89563 20.165 8.65786 20.0667C8.4201 19.9683 8.16435 19.9208 7.90712 19.9274C7.64989 19.9341 7.3969 19.9945 7.1645 20.105L5.6045 20.845C4.0415 21.589 2.4105 19.958 3.1535 18.395L3.8945 16.835C4.00527 16.6024 4.06598 16.3492 4.07269 16.0917C4.0794 15.8342 4.03197 15.5781 3.93347 15.3401C3.83496 15.1021 3.68757 14.8874 3.50085 14.71C3.31413 14.5325 3.09222 14.3963 2.8495 14.31L1.2225 13.732C-0.4075 13.152 -0.4075 10.845 1.2225 10.265L2.8495 9.68699C3.09223 9.601 3.3142 9.46502 3.50106 9.28784C3.68793 9.11067 3.83553 8.89624 3.93431 8.65844C4.03309 8.42063 4.08085 8.16473 4.07451 7.90731C4.06817 7.64988 4.00787 7.39664 3.8975 7.16399L3.1555 5.60399C2.4125 4.03999 4.0435 2.40899 5.6075 3.15199L7.1675 3.89399C7.39985 4.00427 7.65275 4.06462 7.90986 4.07114C8.16698 4.07765 8.42261 4.03019 8.66025 3.93182C8.89789 3.83345 9.11227 3.68635 9.28955 3.50001C9.46683 3.31367 9.60308 3.09223 9.6895 2.84999L10.2675 1.22299C10.8455 -0.407012 13.1525 -0.407012 13.7325 1.22299Z" fill="#FF884D"/>
</g>
<defs>
<clipPath id="clip0_2312_10086">
<rect width="24" height="24" fill="white"/>
</clipPath>
</defs>
</svg>
