<svg width="12" height="13" viewBox="0 0 12 13" fill="none" xmlns="http://www.w3.org/2000/svg">
<path id="Vector" d="M7.12546 7.24478C6.72927 7.42299 6.27273 7.46963 5.83954 7.37635C5.40528 7.2821 5.02555 7.05493 4.77107 6.73715C4.51409 6.43056 4.3854 6.0578 4.40609 5.67991C4.42677 5.30202 4.59559 4.94138 4.88492 4.65703C5.17447 4.36398 5.57712 4.17112 6.0186 4.11401C6.46009 4.05689 6.91062 4.13938 7.28712 4.34626C8.05731 4.76209 8.91516 5.03849 9.81 5.15828C10.5221 5.24469 11.2445 5.2712 11.9697 5.32422C11.8832 3.3688 9.93751 0.859602 6.46912 0.754541C5.39397 0.730312 4.33294 0.969851 3.40945 1.44529C2.48127 1.9236 1.7273 2.6169 1.23323 3.44637C0.736485 4.27945 0.517384 5.21504 0.600292 6.1491C0.6832 7.08315 1.06487 7.97907 1.70286 8.73724L1.60836 8.67538L0.015625 12.5342L3.68154 10.2071C4.42427 10.541 5.24342 10.7291 6.08033 10.758C9.30338 10.8723 11.6247 8.67538 11.9111 6.61687C11.8823 6.60478 11.8519 6.59571 11.8206 6.58987C10.1925 6.45977 8.61744 6.58987 7.12603 7.24527" fill="#FFC501"/>
</svg>
