<svg width="100" height="100" viewBox="0 0 100 100" fill="none" xmlns="http://www.w3.org/2000/svg">
<g id="Pastry 1" clip-path="url(#clip0_2312_9325)">
<g id="Group">
<g id="Layer_2">
<g id="Layer_1-2">
<g id="Group_2">
<path id="Vector" d="M49.9999 99.5071C77.3454 99.5071 99.5134 77.342 99.5134 50C99.5134 22.658 77.3454 0.492859 49.9999 0.492859C22.6543 0.492859 0.486328 22.658 0.486328 50C0.486328 77.342 22.6543 99.5071 49.9999 99.5071Z" fill="#08664B" stroke="#FFEDB3" stroke-width="2.91" stroke-miterlimit="10"/>
<path id="Vector_2" d="M50.0008 84.579C69.1004 84.579 84.5836 69.0975 84.5836 50C84.5836 30.9025 69.1004 15.421 50.0008 15.421C30.9012 15.421 15.418 30.9025 15.418 50C15.418 69.0975 30.9012 84.579 50.0008 84.579Z" fill="#0C513F"/>
<g id="Group_3">
<path id="Vector_3" d="M61.6757 51.3301C50.8367 51.3301 42.0469 60.1175 42.0469 70.9574C42.0469 81.7973 50.8367 90.5847 61.6757 90.5847C72.5147 90.5847 81.3078 81.7973 81.3078 70.9574C81.3078 60.1175 72.518 51.3301 61.6757 51.3301ZM62.8052 75.5958C59.9264 75.5958 57.594 73.2631 57.594 70.3835C57.594 67.5039 59.9264 65.1711 62.8052 65.1711C65.6841 65.1711 68.0198 67.5072 68.0198 70.3835C68.0198 73.2597 65.6841 75.5958 62.8052 75.5958Z" fill="#FF884D"/>
<g id="Group_4">
<path id="Vector_4" d="M64.7089 60.9614C64.8156 60.9614 64.9021 60.9176 64.9021 60.8635C64.9021 60.8095 64.8156 60.7656 64.7089 60.7656C64.6021 60.7656 64.5156 60.8095 64.5156 60.8635C64.5156 60.9176 64.6021 60.9614 64.7089 60.9614Z" fill="white"/>
<path id="Vector_5" d="M63.1015 63.7061C63.2082 63.7061 63.2947 63.6622 63.2947 63.6082C63.2947 63.5541 63.2082 63.5103 63.1015 63.5103C62.9947 63.5103 62.9082 63.5541 62.9082 63.6082C62.9082 63.6622 62.9947 63.7061 63.1015 63.7061Z" fill="white"/>
<path id="Vector_6" d="M55.2948 64.02C55.4016 64.02 55.4881 63.9762 55.4881 63.9221C55.4881 63.8681 55.4016 63.8242 55.2948 63.8242C55.1881 63.8242 55.1016 63.8681 55.1016 63.9221C55.1016 63.9762 55.1881 64.02 55.2948 64.02Z" fill="white"/>
<path id="Vector_7" d="M46.4511 66.8557C46.5578 66.8557 46.6443 66.8119 46.6443 66.7578C46.6443 66.7037 46.5578 66.6599 46.4511 66.6599C46.3443 66.6599 46.2578 66.7037 46.2578 66.7578C46.2578 66.8119 46.3443 66.8557 46.4511 66.8557Z" fill="white"/>
<path id="Vector_8" d="M58.1835 61.1674C58.2902 61.1674 58.3767 61.1235 58.3767 61.0695C58.3767 61.0154 58.2902 60.9716 58.1835 60.9716C58.0768 60.9716 57.9902 61.0154 57.9902 61.0695C57.9902 61.1235 58.0768 61.1674 58.1835 61.1674Z" fill="white"/>
<path id="Vector_9" d="M59.996 57.1973C60.1027 57.1973 60.1892 57.1535 60.1892 57.0994C60.1892 57.0454 60.1027 57.0015 59.996 57.0015C59.8893 57.0015 59.8027 57.0454 59.8027 57.0994C59.8027 57.1535 59.8893 57.1973 59.996 57.1973Z" fill="white"/>
<path id="Vector_10" d="M64.1112 53.8417C64.218 53.8417 64.3045 53.7979 64.3045 53.7438C64.3045 53.6898 64.218 53.6459 64.1112 53.6459C64.0045 53.6459 63.918 53.6898 63.918 53.7438C63.918 53.7979 64.0045 53.8417 64.1112 53.8417Z" fill="white"/>
<path id="Vector_11" d="M66.1347 58.3587C66.2414 58.3587 66.3279 58.2922 66.3279 58.2101C66.3279 58.1281 66.2414 58.0616 66.1347 58.0616C66.0279 58.0616 65.9414 58.1281 65.9414 58.2101C65.9414 58.2922 66.0279 58.3587 66.1347 58.3587Z" fill="white"/>
<path id="Vector_12" d="M70.539 56.1339C70.6457 56.1339 70.7322 56.0674 70.7322 55.9854C70.7322 55.9034 70.6457 55.8369 70.539 55.8369C70.4322 55.8369 70.3457 55.9034 70.3457 55.9854C70.3457 56.0674 70.4322 56.1339 70.539 56.1339Z" fill="white"/>
<path id="Vector_13" d="M68.494 61.0695C68.6008 61.0695 68.6873 61.003 68.6873 60.9209C68.6873 60.8389 68.6008 60.7724 68.494 60.7724C68.3873 60.7724 68.3008 60.8389 68.3008 60.9209C68.3008 61.003 68.3873 61.0695 68.494 61.0695Z" fill="white"/>
<path id="Vector_14" d="M75.2538 61.5218C75.3605 61.5218 75.4471 61.4553 75.4471 61.3733C75.4471 61.2912 75.3605 61.2247 75.2538 61.2247C75.1471 61.2247 75.0605 61.2912 75.0605 61.3733C75.0605 61.4553 75.1471 61.5218 75.2538 61.5218Z" fill="white"/>
<path id="Vector_15" d="M54.6444 59.1317C54.7512 59.1317 54.8377 59.0652 54.8377 58.9832C54.8377 58.9012 54.7512 58.8347 54.6444 58.8347C54.5377 58.8347 54.4512 58.9012 54.4512 58.9832C54.4512 59.0652 54.5377 59.1317 54.6444 59.1317Z" fill="white"/>
<path id="Vector_16" d="M56.787 54.0544C56.8937 54.0544 56.9803 53.9879 56.9803 53.9059C56.9803 53.8238 56.8937 53.7573 56.787 53.7573C56.6803 53.7573 56.5938 53.8238 56.5938 53.9059C56.5938 53.9879 56.6803 54.0544 56.787 54.0544Z" fill="white"/>
<path id="Vector_17" d="M51.1464 62.8385C51.2531 62.8385 51.3396 62.772 51.3396 62.6899C51.3396 62.6079 51.2531 62.5414 51.1464 62.5414C51.0396 62.5414 50.9531 62.6079 50.9531 62.6899C50.9531 62.772 51.0396 62.8385 51.1464 62.8385Z" fill="white"/>
<path id="Vector_18" d="M48.6581 60.3471C48.7648 60.3471 48.8514 60.2806 48.8514 60.1985C48.8514 60.1165 48.7648 60.05 48.6581 60.05C48.5514 60.05 48.4648 60.1165 48.4648 60.1985C48.4648 60.2806 48.5514 60.3471 48.6581 60.3471Z" fill="white"/>
<path id="Vector_19" d="M62.8983 58.0582C63.0051 58.0582 63.0916 57.9917 63.0916 57.9096C63.0916 57.8276 63.0051 57.7611 62.8983 57.7611C62.7916 57.7611 62.7051 57.8276 62.7051 57.9096C62.7051 57.9917 62.7916 58.0582 62.8983 58.0582Z" fill="white"/>
<path id="Vector_20" d="M55.9843 71.2241C56.091 71.2241 56.1775 71.1576 56.1775 71.0755C56.1775 70.9935 56.091 70.927 55.9843 70.927C55.8775 70.927 55.791 70.9935 55.791 71.0755C55.791 71.1576 55.8775 71.2241 55.9843 71.2241Z" fill="white"/>
<path id="Vector_21" d="M58.3847 76.5681C58.4914 76.5681 58.5779 76.5016 58.5779 76.4195C58.5779 76.3375 58.4914 76.271 58.3847 76.271C58.2779 76.271 58.1914 76.3375 58.1914 76.4195C58.1914 76.5016 58.2779 76.5681 58.3847 76.5681Z" fill="white"/>
<path id="Vector_22" d="M53.5683 77.9893C53.675 77.9893 53.7615 77.9228 53.7615 77.8408C53.7615 77.7588 53.675 77.6923 53.5683 77.6923C53.4615 77.6923 53.375 77.7588 53.375 77.8408C53.375 77.9228 53.4615 77.9893 53.5683 77.9893Z" fill="white"/>
<path id="Vector_23" d="M60.1229 82.4893C60.2297 82.4893 60.3162 82.4228 60.3162 82.3408C60.3162 82.2588 60.2297 82.1923 60.1229 82.1923C60.0162 82.1923 59.9297 82.2588 59.9297 82.3408C59.9297 82.4228 60.0162 82.4893 60.1229 82.4893Z" fill="white"/>
<path id="Vector_24" d="M59.7968 86.9354C59.9035 86.9354 59.99 86.8689 59.99 86.7868C59.99 86.7048 59.9035 86.6383 59.7968 86.6383C59.69 86.6383 59.6035 86.7048 59.6035 86.7868C59.6035 86.8689 59.69 86.9354 59.7968 86.9354Z" fill="white"/>
<path id="Vector_25" d="M55.4491 82.648C55.5558 82.648 55.6424 82.5815 55.6424 82.4995C55.6424 82.4175 55.5558 82.351 55.4491 82.351C55.3424 82.351 55.2559 82.4175 55.2559 82.4995C55.2559 82.5815 55.3424 82.648 55.4491 82.648Z" fill="white"/>
<path id="Vector_26" d="M55.6815 67.1123C55.7883 67.1123 55.8748 67.0458 55.8748 66.9637C55.8748 66.8817 55.7883 66.8152 55.6815 66.8152C55.5748 66.8152 55.4883 66.8817 55.4883 66.9637C55.4883 67.0458 55.5748 67.1123 55.6815 67.1123Z" fill="white"/>
<path id="Vector_27" d="M52.1698 72.2503C52.2766 72.2503 52.3631 72.1838 52.3631 72.1018C52.3631 72.0198 52.2766 71.9532 52.1698 71.9532C52.0631 71.9532 51.9766 72.0198 51.9766 72.1018C51.9766 72.1838 52.0631 72.2503 52.1698 72.2503Z" fill="white"/>
<path id="Vector_28" d="M49.7011 74.8701C49.8078 74.8701 49.8943 74.8036 49.8943 74.7215C49.8943 74.6395 49.8078 74.573 49.7011 74.573C49.5943 74.573 49.5078 74.6395 49.5078 74.7215C49.5078 74.8036 49.5943 74.8701 49.7011 74.8701Z" fill="white"/>
<path id="Vector_29" d="M50.9159 69.0804C51.0226 69.0804 51.1092 69.0139 51.1092 68.9319C51.1092 68.8498 51.0226 68.7833 50.9159 68.7833C50.8092 68.7833 50.7227 68.8498 50.7227 68.9319C50.7227 69.0139 50.8092 69.0804 50.9159 69.0804Z" fill="white"/>
<path id="Vector_30" d="M55.2753 74.0261C55.382 74.0261 55.4685 73.9596 55.4685 73.8775C55.4685 73.7955 55.382 73.729 55.2753 73.729C55.1686 73.729 55.082 73.7955 55.082 73.8775C55.082 73.9596 55.1686 74.0261 55.2753 74.0261Z" fill="white"/>
<path id="Vector_31" d="M47.455 79.2655C47.5617 79.2655 47.6482 79.199 47.6482 79.1169C47.6482 79.0349 47.5617 78.9684 47.455 78.9684C47.3482 78.9684 47.2617 79.0349 47.2617 79.1169C47.2617 79.199 47.3482 79.2655 47.455 79.2655Z" fill="white"/>
<path id="Vector_32" d="M44.746 72.7027C44.8527 72.7027 44.9392 72.6362 44.9392 72.5542C44.9392 72.4721 44.8527 72.4056 44.746 72.4056C44.6393 72.4056 44.5527 72.4721 44.5527 72.5542C44.5527 72.6362 44.6393 72.7027 44.746 72.7027Z" fill="white"/>
<path id="Vector_33" d="M50.7675 65.5324C50.8742 65.5324 50.9607 65.4659 50.9607 65.3839C50.9607 65.3019 50.8742 65.2354 50.7675 65.2354C50.6607 65.2354 50.5742 65.3019 50.5742 65.3839C50.5742 65.4659 50.6607 65.5324 50.7675 65.5324Z" fill="white"/>
<path id="Vector_34" d="M51.2597 56.4378C51.3664 56.4378 51.4529 56.3713 51.4529 56.2892C51.4529 56.2072 51.3664 56.1407 51.2597 56.1407C51.1529 56.1407 51.0664 56.2072 51.0664 56.2892C51.0664 56.3713 51.1529 56.4378 51.2597 56.4378Z" fill="white"/>
<path id="Vector_35" d="M66.9207 63.4933C67.0808 63.4933 67.2106 63.4056 67.2106 63.2975C67.2106 63.1893 67.0808 63.1017 66.9207 63.1017C66.7606 63.1017 66.6309 63.1893 66.6309 63.2975C66.6309 63.4056 66.7606 63.4933 66.9207 63.4933Z" fill="white"/>
<path id="Vector_36" d="M58.1805 65.2285C58.3406 65.2285 58.4704 65.1409 58.4704 65.0327C58.4704 64.9246 58.3406 64.8369 58.1805 64.8369C58.0204 64.8369 57.8906 64.9246 57.8906 65.0327C57.8906 65.1409 58.0204 65.2285 58.1805 65.2285Z" fill="white"/>
<path id="Vector_37" d="M61.8856 78.1479C62.0457 78.1479 62.1755 78.0603 62.1755 77.9521C62.1755 77.844 62.0457 77.7563 61.8856 77.7563C61.7255 77.7563 61.5957 77.844 61.5957 77.9521C61.5957 78.0603 61.7255 78.1479 61.8856 78.1479Z" fill="white"/>
<path id="Vector_38" d="M63.9286 81.2673C64.0887 81.2673 64.2184 81.1797 64.2184 81.0715C64.2184 80.9634 64.0887 80.8757 63.9286 80.8757C63.7685 80.8757 63.6387 80.9634 63.6387 81.0715C63.6387 81.1797 63.7685 81.2673 63.9286 81.2673Z" fill="white"/>
<path id="Vector_39" d="M67.2196 86.1656C67.3797 86.1656 67.5095 86.078 67.5095 85.9698C67.5095 85.8617 67.3797 85.774 67.2196 85.774C67.0595 85.774 66.9297 85.8617 66.9297 85.9698C66.9297 86.078 67.0595 86.1656 67.2196 86.1656Z" fill="white"/>
<path id="Vector_40" d="M73.2411 85.1597C73.4012 85.1597 73.5309 85.072 73.5309 84.9639C73.5309 84.8557 73.4012 84.7681 73.2411 84.7681C73.081 84.7681 72.9512 84.8557 72.9512 84.9639C72.9512 85.072 73.081 85.1597 73.2411 85.1597Z" fill="white"/>
<path id="Vector_41" d="M71.1551 64.7357C71.3152 64.7357 71.445 64.648 71.445 64.5399C71.445 64.4318 71.3152 64.3441 71.1551 64.3441C70.995 64.3441 70.8652 64.4318 70.8652 64.5399C70.8652 64.648 70.995 64.7357 71.1551 64.7357Z" fill="white"/>
<path id="Vector_42" d="M72.2977 61.8492C72.4578 61.8492 72.5876 61.7616 72.5876 61.6534C72.5876 61.5453 72.4578 61.4576 72.2977 61.4576C72.1376 61.4576 72.0078 61.5453 72.0078 61.6534C72.0078 61.7616 72.1376 61.8492 72.2977 61.8492Z" fill="white"/>
<path id="Vector_43" d="M76.1532 71.5313C76.3133 71.5313 76.4431 71.4436 76.4431 71.3354C76.4431 71.2273 76.3133 71.1396 76.1532 71.1396C75.9931 71.1396 75.8633 71.2273 75.8633 71.3354C75.8633 71.4436 75.9931 71.5313 76.1532 71.5313Z" fill="white"/>
<path id="Vector_44" d="M73.1414 72.6554C73.3015 72.6554 73.4313 72.5677 73.4313 72.4596C73.4313 72.3515 73.3015 72.2638 73.1414 72.2638C72.9813 72.2638 72.8516 72.3515 72.8516 72.4596C72.8516 72.5677 72.9813 72.6554 73.1414 72.6554Z" fill="white"/>
<path id="Vector_45" d="M69.1024 67.6626C69.2625 67.6626 69.3923 67.5749 69.3923 67.4668C69.3923 67.3587 69.2625 67.271 69.1024 67.271C68.9423 67.271 68.8125 67.3587 68.8125 67.4668C68.8125 67.5749 68.9423 67.6626 69.1024 67.6626Z" fill="white"/>
<path id="Vector_46" d="M67.3231 77.7328C67.4832 77.7328 67.613 77.6451 67.613 77.537C67.613 77.4288 67.4832 77.3412 67.3231 77.3412C67.163 77.3412 67.0332 77.4288 67.0332 77.537C67.0332 77.6451 67.163 77.7328 67.3231 77.7328Z" fill="white"/>
<path id="Vector_47" d="M70.1317 80.788C70.2918 80.788 70.4216 80.7003 70.4216 80.5922C70.4216 80.484 70.2918 80.3964 70.1317 80.3964C69.9716 80.3964 69.8418 80.484 69.8418 80.5922C69.8418 80.7003 69.9716 80.788 70.1317 80.788Z" fill="white"/>
<path id="Vector_48" d="M69.1805 75.0287C69.3406 75.0287 69.4704 74.941 69.4704 74.8329C69.4704 74.7247 69.3406 74.6371 69.1805 74.6371C69.0204 74.6371 68.8906 74.7247 68.8906 74.8329C68.8906 74.941 69.0204 75.0287 69.1805 75.0287Z" fill="white"/>
<path id="Vector_49" d="M70.8329 71.7271C70.9929 71.7271 71.1227 71.6394 71.1227 71.5313C71.1227 71.4231 70.9929 71.3354 70.8329 71.3354C70.6728 71.3354 70.543 71.4231 70.543 71.5313C70.543 71.6394 70.6728 71.7271 70.8329 71.7271Z" fill="white"/>
<path id="Vector_50" d="M75.2469 75.4912C75.407 75.4912 75.5368 75.4035 75.5368 75.2954C75.5368 75.1873 75.407 75.0996 75.2469 75.0996C75.0868 75.0996 74.957 75.1873 74.957 75.2954C74.957 75.4035 75.0868 75.4912 75.2469 75.4912Z" fill="white"/>
<path id="Vector_51" d="M75.8504 80.079C76.0105 80.079 76.1403 79.9913 76.1403 79.8832C76.1403 79.775 76.0105 79.6874 75.8504 79.6874C75.6903 79.6874 75.5605 79.775 75.5605 79.8832C75.5605 79.9913 75.6903 80.079 75.8504 80.079Z" fill="white"/>
<path id="Vector_52" d="M80.1649 73.1652C80.325 73.1652 80.4548 73.0775 80.4548 72.9694C80.4548 72.8612 80.325 72.7736 80.1649 72.7736C80.0048 72.7736 79.875 72.8612 79.875 72.9694C79.875 73.0775 80.0048 73.1652 80.1649 73.1652Z" fill="white"/>
<path id="Vector_53" d="M77.2567 64.0166C77.4168 64.0166 77.5466 63.9289 77.5466 63.8208C77.5466 63.7127 77.4168 63.625 77.2567 63.625C77.0966 63.625 76.9668 63.7127 76.9668 63.8208C76.9668 63.9289 77.0966 64.0166 77.2567 64.0166Z" fill="white"/>
<path id="Vector_54" d="M74.3368 67.7706C74.4969 67.7706 74.6266 67.683 74.6266 67.5748C74.6266 67.4667 74.4969 67.379 74.3368 67.379C74.1767 67.379 74.0469 67.4667 74.0469 67.5748C74.0469 67.683 74.1767 67.7706 74.3368 67.7706Z" fill="white"/>
</g>
</g>
<g id="Group_5">
<path id="Vector_55" d="M39.1744 46.2427C38.1148 46.4958 37.0219 45.9895 36.5121 45.0172C36.5121 45.0172 32.7403 42.2558 30.3279 37.1346C28.422 33.0903 27.5723 27.986 27.5723 27.986C27.1758 27.2264 27.4124 26.2879 28.1221 25.8187C28.1221 25.8187 35.7491 19.3032 38.5746 17.5073C43.6626 14.2732 48.4906 11.4138 50.6964 10.1209C51.6094 9.58747 52.699 9.47607 53.6952 9.81365C55.6911 10.4888 59.0064 12.2004 61.4788 16.4607C64.8308 22.2335 67.4131 28.543 68.2094 30.5685C68.3794 30.9972 68.2994 31.48 68.0028 31.8311C66.8266 33.2152 63.1981 36.8206 54.7515 40.6894C47.4577 44.0315 41.88 45.6012 39.1677 46.2427H39.1744Z" fill="#FFEDB3"/>
<g id="Group_6">
<path id="Vector_56" d="M38.8408 31.7231C39.1131 31.7231 39.3339 31.4994 39.3339 31.2234C39.3339 30.9475 39.1131 30.7238 38.8408 30.7238C38.5684 30.7238 38.3477 30.9475 38.3477 31.2234C38.3477 31.4994 38.5684 31.7231 38.8408 31.7231Z" fill="#FFC501"/>
<path id="Vector_57" d="M37.51 29.3287C37.7782 29.2808 37.9565 29.0172 37.9083 28.7399C37.86 28.4627 37.6035 28.2768 37.3353 28.3247C37.067 28.3726 36.8887 28.6362 36.937 28.9135C36.9852 29.1907 37.2418 29.3766 37.51 29.3287Z" fill="#FFC501"/>
<path id="Vector_58" d="M36.0393 27.3122C36.3075 27.2642 36.4858 27.0006 36.4376 26.7234C36.3893 26.4461 36.1328 26.2602 35.8646 26.3081C35.5963 26.3561 35.418 26.6197 35.4663 26.8969C35.5145 27.1742 35.7711 27.3601 36.0393 27.3122Z" fill="#FFC501"/>
<path id="Vector_59" d="M50.0088 24.7249C50.2811 24.7249 50.5019 24.5012 50.5019 24.2253C50.5019 23.9493 50.2811 23.7256 50.0088 23.7256C49.7364 23.7256 49.5156 23.9493 49.5156 24.2253C49.5156 24.5012 49.7364 24.7249 50.0088 24.7249Z" fill="#FFC501"/>
<path id="Vector_60" d="M48.676 22.3325C48.9442 22.2846 49.1225 22.021 49.0743 21.7438C49.026 21.4665 48.7695 21.2806 48.5013 21.3285C48.2331 21.3764 48.0547 21.64 48.103 21.9173C48.1512 22.1945 48.4078 22.3805 48.676 22.3325Z" fill="#FFC501"/>
<path id="Vector_61" d="M47.2053 20.3126C47.4735 20.2647 47.6518 20.0011 47.6036 19.7239C47.5553 19.4466 47.2988 19.2607 47.0306 19.3086C46.7624 19.3565 46.584 19.6201 46.6323 19.8974C46.6805 20.1747 46.9371 20.3606 47.2053 20.3126Z" fill="#FFC501"/>
<path id="Vector_62" d="M45.3127 18.7452C45.5809 18.6973 45.7593 18.4337 45.711 18.1564C45.6628 17.8792 45.4062 17.6933 45.138 17.7412C44.8698 17.7891 44.6915 18.0527 44.7397 18.33C44.788 18.6072 45.0445 18.7931 45.3127 18.7452Z" fill="#FFC501"/>
<path id="Vector_63" d="M34.7502 25.6634C35.0184 25.6155 35.1968 25.3519 35.1485 25.0746C35.1002 24.7974 34.8437 24.6115 34.5755 24.6594C34.3073 24.7073 34.129 24.9709 34.1772 25.2482C34.2255 25.5254 34.482 25.7113 34.7502 25.6634Z" fill="#FFC501"/>
</g>
<g id="Vector_64" style="mix-blend-mode:multiply">
<path d="M28.7255 28.2223C28.7255 28.2223 34.6432 34.3022 36.8589 44.2442C36.8589 44.2442 29.1687 37.7422 28.6289 28.3607" fill="#FFEDB3"/>
</g>
</g>
<g id="Vector_65" style="mix-blend-mode:multiply">
<path d="M60.8964 50.611C60.8964 50.611 59.6469 51.3335 59.6702 52.5927C59.8535 62.6156 67.5304 70.3801 77.2266 70.3801C79.5789 70.3801 81.4982 69.3032 83.5474 68.4525L60.8964 50.6144V50.611Z" fill="#FF884D"/>
</g>
<g id="Group_7">
<path id="Vector_66" d="M79.6386 30.2309C68.7996 30.2309 60.0098 39.0183 60.0098 49.8582C60.0098 60.6981 68.7996 69.4821 79.6386 69.4821C90.4776 69.4821 99.2707 60.6981 99.2707 49.8582C99.2707 39.0183 90.4809 30.2309 79.6386 30.2309ZM80.7715 54.4966C77.8926 54.4966 75.5569 52.1639 75.5569 49.2843C75.5569 46.4047 77.8926 44.072 80.7715 44.072C83.6503 44.072 85.9827 46.4047 85.9827 49.2843C85.9827 52.1639 83.6503 54.4966 80.7715 54.4966Z" fill="#FF884D"/>
<g id="Group_8">
<path id="Vector_67" d="M70.3047 37.6477L71.924 38.8259" stroke="#FFC501" stroke-width="2.18" stroke-linecap="round" stroke-linejoin="round"/>
<path id="Vector_68" d="M42.2363 48.0994L43.8557 49.2809" stroke="#FFC501" stroke-width="2.18" stroke-linecap="round" stroke-linejoin="round"/>
<path id="Vector_69" d="M42.793 51.5833L44.4123 52.7615" stroke="#FFC501" stroke-width="2.18" stroke-linecap="round" stroke-linejoin="round"/>
<path id="Vector_70" d="M75.8926 39.5213L76.409 41.4726" stroke="#FFC501" stroke-width="2.18" stroke-linecap="round" stroke-linejoin="round"/>
<path id="Vector_71" d="M76.0859 33.7553L77.6886 34.9605" stroke="#FFC501" stroke-width="2.18" stroke-linecap="round" stroke-linejoin="round"/>
<path id="Vector_72" d="M73.9805 45.0206L74.6635 46.9212" stroke="#FFFCF5" stroke-width="2.18" stroke-linecap="round" stroke-linejoin="round"/>
<path id="Vector_73" d="M68.4199 24.2556L69.103 26.1529" stroke="#FFFCF5" stroke-width="2.18" stroke-linecap="round" stroke-linejoin="round"/>
<path id="Vector_74" d="M62.4648 53.5312L64.1175 54.6655" stroke="#FFC501" stroke-width="2.18" stroke-linecap="round" stroke-linejoin="round"/>
<path id="Vector_75" d="M79.3457 57.7747V59.7968" stroke="#FFFCF5" stroke-width="2.18" stroke-linecap="round" stroke-linejoin="round"/>
<path id="Vector_76" d="M73.3965 63.6082V65.6269" stroke="#FFC501" stroke-width="2.18" stroke-linecap="round" stroke-linejoin="round"/>
<path id="Vector_77" d="M82.0801 64.4994L83.7594 65.5898" stroke="#FFC501" stroke-width="2.18" stroke-linecap="round" stroke-linejoin="round"/>
<path id="Vector_78" d="M72.3984 54.1861L74.0844 55.2698" stroke="#FFFCF5" stroke-width="2.18" stroke-linecap="round" stroke-linejoin="round"/>
<path id="Vector_79" d="M69.5254 23.5568L71.2114 24.6405" stroke="#FFFCF5" stroke-width="2.18" stroke-linecap="round" stroke-linejoin="round"/>
<path id="Vector_80" d="M69.868 59.1385L67.9688 59.7495" stroke="#FFFCF5" stroke-width="2.18" stroke-linecap="round" stroke-linejoin="round"/>
<path id="Vector_81" d="M69.2787 46.0975L68.0625 47.6977" stroke="#FFFCF5" stroke-width="2.18" stroke-linecap="round" stroke-linejoin="round"/>
<path id="Vector_82" d="M42.0697 49.9257L40.8535 51.5259" stroke="#FFFCF5" stroke-width="2.18" stroke-linecap="round" stroke-linejoin="round"/>
<path id="Vector_83" d="M65.3776 41.4523L64.4746 43.2517" stroke="#FFC501" stroke-width="2.18" stroke-linecap="round" stroke-linejoin="round"/>
<path id="Vector_84" d="M82.2429 36.4628L81.1934 38.1811" stroke="#FFC501" stroke-width="2.18" stroke-linecap="round" stroke-linejoin="round"/>
<path id="Vector_85" d="M89.2837 47.3331L87.791 48.6733" stroke="#FFFCF5" stroke-width="2.18" stroke-linecap="round" stroke-linejoin="round"/>
<path id="Vector_86" d="M95.2812 53.2476V55.2698" stroke="#FFC501" stroke-width="2.18" stroke-linecap="round" stroke-linejoin="round"/>
<path id="Vector_87" d="M94.1016 46.9854L95.5943 48.3256" stroke="#FFC501" stroke-width="2.18" stroke-linecap="round" stroke-linejoin="round"/>
<path id="Vector_88" d="M70.5879 28.3944L71.221 26.4769" stroke="#FFC501" stroke-width="2.18" stroke-linecap="round" stroke-linejoin="round"/>
<path id="Vector_89" d="M87.4883 52.7311L87.9148 54.706" stroke="#FFFCF5" stroke-width="2.18" stroke-linecap="round" stroke-linejoin="round"/>
<path id="Vector_90" d="M85.6055 59.4086L87.5813 59.7023" stroke="#FFC501" stroke-width="2.18" stroke-linecap="round" stroke-linejoin="round"/>
<path id="Vector_91" d="M92.9453 59.9892V62.0113" stroke="#FFC501" stroke-width="2.18" stroke-linecap="round" stroke-linejoin="round"/>
<path id="Vector_92" d="M86.1016 35.9125L88.0941 35.8619" stroke="#FFC501" stroke-width="2.18" stroke-linecap="round" stroke-linejoin="round"/>
<path id="Vector_93" d="M84.7552 43.2955L82.8359 42.752" stroke="#FFC501" stroke-width="2.18" stroke-linecap="round" stroke-linejoin="round"/>
<path id="Vector_94" d="M90.1973 40.5814V42.6035" stroke="#FFC501" stroke-width="2.18" stroke-linecap="round" stroke-linejoin="round"/>
</g>
</g>
<g id="Vector_95" style="mix-blend-mode:multiply">
<path d="M44.0094 79.6266L47.9411 77.7867C49.084 77.25 49.3173 75.7072 48.3876 74.8497L47.2914 73.8403L42.6699 76.5917L44.0094 79.63V79.6266Z" fill="#FF884D"/>
</g>
<g id="Group_9">
<path id="Vector_96" d="M26.5958 34.4643L26.4725 31.7939C26.4059 30.3389 24.32 29.0764 23.0306 29.7212C16.5098 32.9822 2.35549 44.1192 10.2923 62.6426C20.5282 86.5269 39.6739 80.5888 46.7877 77.3243C48.1605 76.693 48.4304 74.8363 47.2875 73.8404L46.1446 72.8411C46.1446 72.8411 38.2245 56.2217 35.6422 51.1579C33.3364 46.6275 26.5925 34.4643 26.5925 34.4643H26.5958Z" fill="#FFEDB3"/>
<g id="Group_10">
<path id="Vector_97" d="M21.8293 47.8968C21.982 47.8968 22.1058 47.7714 22.1058 47.6166C22.1058 47.4619 21.982 47.3364 21.8293 47.3364C21.6766 47.3364 21.5527 47.4619 21.5527 47.6166C21.5527 47.7714 21.6766 47.8968 21.8293 47.8968Z" fill="#FFC501"/>
<path id="Vector_98" d="M21.0812 50.2633C21.234 50.2633 21.3578 50.1378 21.3578 49.9831C21.3578 49.8283 21.234 49.7029 21.0812 49.7029C20.9285 49.7029 20.8047 49.8283 20.8047 49.9831C20.8047 50.1378 20.9285 50.2633 21.0812 50.2633Z" fill="#FFC501"/>
<path id="Vector_99" d="M20.425 52.434C20.5777 52.434 20.7015 52.3085 20.7015 52.1538C20.7015 51.999 20.5777 51.8736 20.425 51.8736C20.2723 51.8736 20.1484 51.999 20.1484 52.1538C20.1484 52.3085 20.2723 52.434 20.425 52.434Z" fill="#FFC501"/>
<path id="Vector_100" d="M19.4894 55.0503C19.6422 55.0503 19.766 54.9248 19.766 54.7701C19.766 54.6153 19.6422 54.4899 19.4894 54.4899C19.3367 54.4899 19.2129 54.6153 19.2129 54.7701C19.2129 54.9248 19.3367 55.0503 19.4894 55.0503Z" fill="#FFC501"/>
<path id="Vector_101" d="M27.7062 53.099C27.859 53.099 27.9828 52.9736 27.9828 52.8188C27.9828 52.6641 27.859 52.5386 27.7062 52.5386C27.5535 52.5386 27.4297 52.6641 27.4297 52.8188C27.4297 52.9736 27.5535 53.099 27.7062 53.099Z" fill="#FFC501"/>
<path id="Vector_102" d="M26.9562 55.4655C27.109 55.4655 27.2328 55.3401 27.2328 55.1853C27.2328 55.0306 27.109 54.9052 26.9562 54.9052C26.8035 54.9052 26.6797 55.0306 26.6797 55.1853C26.6797 55.3401 26.8035 55.4655 26.9562 55.4655Z" fill="#FFC501"/>
<path id="Vector_103" d="M26.3039 57.6362C26.4566 57.6362 26.5805 57.5107 26.5805 57.356C26.5805 57.2012 26.4566 57.0758 26.3039 57.0758C26.1512 57.0758 26.0273 57.2012 26.0273 57.356C26.0273 57.5107 26.1512 57.6362 26.3039 57.6362Z" fill="#FFC501"/>
<path id="Vector_104" d="M25.3644 60.2525C25.5172 60.2525 25.641 60.1271 25.641 59.9723C25.641 59.8176 25.5172 59.6921 25.3644 59.6921C25.2117 59.6921 25.0879 59.8176 25.0879 59.9723C25.0879 60.1271 25.2117 60.2525 25.3644 60.2525Z" fill="#FFC501"/>
<path id="Vector_105" d="M32.5109 58.6186C32.6637 58.6186 32.7875 58.4931 32.7875 58.3384C32.7875 58.1836 32.6637 58.0582 32.5109 58.0582C32.3582 58.0582 32.2344 58.1836 32.2344 58.3384C32.2344 58.4931 32.3582 58.6186 32.5109 58.6186Z" fill="#FFC501"/>
<path id="Vector_106" d="M31.7609 60.9851C31.9137 60.9851 32.0375 60.8596 32.0375 60.7049C32.0375 60.5501 31.9137 60.4247 31.7609 60.4247C31.6082 60.4247 31.4844 60.5501 31.4844 60.7049C31.4844 60.8596 31.6082 60.9851 31.7609 60.9851Z" fill="#FFC501"/>
<path id="Vector_107" d="M31.1086 63.1557C31.2613 63.1557 31.3851 63.0303 31.3851 62.8755C31.3851 62.7208 31.2613 62.5953 31.1086 62.5953C30.9559 62.5953 30.832 62.7208 30.832 62.8755C30.832 63.0303 30.9559 63.1557 31.1086 63.1557Z" fill="#FFC501"/>
<path id="Vector_108" d="M30.1691 65.7721C30.3219 65.7721 30.4457 65.6466 30.4457 65.4919C30.4457 65.3371 30.3219 65.2117 30.1691 65.2117C30.0164 65.2117 29.8926 65.3371 29.8926 65.4919C29.8926 65.6466 30.0164 65.7721 30.1691 65.7721Z" fill="#FFC501"/>
</g>
<g id="Group_11">
<path id="Vector_109" d="M11.0942 47.5627L8.95508 46.9584" stroke="#FFC60C" stroke-width="2.97" stroke-linecap="round" stroke-linejoin="round"/>
<path id="Vector_110" d="M10.6061 50.6111L8.43359 50.5503" stroke="#FFC60C" stroke-width="2.97" stroke-linecap="round" stroke-linejoin="round"/>
<g id="Vector_111">
<path d="M12.0842 45.0678C12.0842 45.0678 10.1483 44.3657 9.8418 44.126L12.0842 45.0678Z" fill="#3CFF31"/>
<path d="M12.0842 45.0678C12.0842 45.0678 10.1483 44.3657 9.8418 44.126" stroke="#FFC60C" stroke-width="2.97" stroke-linecap="round" stroke-linejoin="round"/>
</g>
<g id="Vector_112">
<path d="M13.4539 42.1511C13.4539 42.1511 11.5147 41.2059 11.3281 40.902L13.4539 42.1511Z" fill="#3CFF31"/>
<path d="M13.4539 42.1511C13.4539 42.1511 11.5147 41.2059 11.3281 40.902" stroke="#FFC60C" stroke-width="2.97" stroke-linecap="round" stroke-linejoin="round"/>
</g>
<g id="Vector_113">
<path d="M14.8008 39.5078C14.8008 39.5078 13.4446 38.6773 13.1914 38.3296L14.8008 39.5078Z" fill="#3CFF31"/>
<path d="M14.8008 39.5078C14.8008 39.5078 13.4446 38.6773 13.1914 38.3296" stroke="#FFC60C" stroke-width="2.97" stroke-linecap="round" stroke-linejoin="round"/>
</g>
<g id="Vector_114">
<path d="M17.3398 34.0726C17.3398 34.0726 18.1029 34.8221 18.6193 35.028L17.3398 34.0726Z" fill="#3CFF31"/>
<path d="M17.3398 34.0726C17.3398 34.0726 18.1029 34.8221 18.6193 35.028" stroke="#FFC60C" stroke-width="2.97" stroke-linecap="round" stroke-linejoin="round"/>
</g>
<g id="Vector_115">
<path d="M19.1855 32.5839C19.1855 32.5839 19.762 33.2388 20.2251 33.6034L19.1855 32.5839Z" fill="#3CFF31"/>
<path d="M19.1855 32.5839C19.1855 32.5839 19.762 33.2388 20.2251 33.6034" stroke="#FFC60C" stroke-width="2.97" stroke-linecap="round" stroke-linejoin="round"/>
</g>
<g id="Vector_116">
<path d="M21.3301 31.0884C21.3301 31.0884 21.4867 31.5441 22.1031 32.3881L21.3301 31.0884Z" fill="#3CFF31"/>
<path d="M21.3301 31.0884C21.3301 31.0884 21.4867 31.5441 22.1031 32.3881" stroke="#FFC60C" stroke-width="2.97" stroke-linecap="round" stroke-linejoin="round"/>
</g>
<g id="Vector_117">
<path d="M15.2266 36.0475C15.2266 36.0475 15.8763 36.8409 16.576 37.2257L15.2266 36.0475Z" fill="#3CFF31"/>
<path d="M15.2266 36.0475C15.2266 36.0475 15.8763 36.8409 16.576 37.2257" stroke="#FFC60C" stroke-width="2.97" stroke-linecap="round" stroke-linejoin="round"/>
</g>
<g id="Vector_118">
<path d="M8.30273 54.0915C8.30273 54.0915 10.1453 53.8957 10.7751 53.7337L8.30273 54.0915Z" fill="#3CFF31"/>
<path d="M8.30273 54.0915C8.30273 54.0915 10.1453 53.8957 10.7751 53.7337" stroke="#FFC60C" stroke-width="2.97" stroke-linecap="round" stroke-linejoin="round"/>
</g>
<path id="Vector_119" d="M16.7891 68.3242L14.6133 69.975" stroke="#FFC60C" stroke-width="2.97" stroke-linecap="round" stroke-linejoin="round"/>
<g id="Vector_120">
<path d="M8.73828 57.2244C8.73828 57.2244 10.3776 56.8226 11.3039 56.4716L8.73828 57.2244Z" fill="#3CFF31"/>
<path d="M8.73828 57.2244C8.73828 57.2244 10.3776 56.8226 11.3039 56.4716" stroke="#FFC60C" stroke-width="2.97" stroke-linecap="round" stroke-linejoin="round"/>
</g>
<g id="Vector_121">
<path d="M9.71875 60.2289C9.71875 60.2289 11.3981 59.5368 11.9678 59.2532L9.71875 60.2289Z" fill="#3CFF31"/>
<path d="M9.71875 60.2289C9.71875 60.2289 11.3981 59.5368 11.9678 59.2532" stroke="#FFC60C" stroke-width="2.97" stroke-linecap="round" stroke-linejoin="round"/>
</g>
<g id="Vector_122">
<path d="M10.6582 62.7709C10.6582 62.7709 12.1743 62.0451 12.714 61.8561L10.6582 62.7709Z" fill="#3CFF31"/>
<path d="M10.6582 62.7709C10.6582 62.7709 12.1743 62.0451 12.714 61.8561" stroke="#FFC60C" stroke-width="2.97" stroke-linecap="round" stroke-linejoin="round"/>
</g>
<path id="Vector_123" d="M11.9609 65.4412L14.1401 64.2799" stroke="#FFC60C" stroke-width="2.97" stroke-linecap="round" stroke-linejoin="round"/>
<path id="Vector_124" d="M13.291 67.8887L15.6467 66.4202" stroke="#FFC60C" stroke-width="2.97" stroke-linecap="round" stroke-linejoin="round"/>
<g id="Vector_125">
<path d="M16.2871 71.977C17.0635 71.6596 18.4263 70.1776 18.4263 70.1776L16.2871 71.977Z" fill="#3CFF31"/>
<path d="M16.2871 71.977C17.0635 71.6596 18.4263 70.1776 18.4263 70.1776" stroke="#FFC60C" stroke-width="2.97" stroke-linecap="round" stroke-linejoin="round"/>
</g>
<path id="Vector_126" d="M18.4277 74.2962L20.1271 72.2133" stroke="#FFC60C" stroke-width="2.97" stroke-linecap="round" stroke-linejoin="round"/>
<path id="Vector_127" d="M42.239 78.651L41.9824 76.4905" stroke="#FFC60C" stroke-width="2.97" stroke-linecap="round" stroke-linejoin="round"/>
<path id="Vector_128" d="M45.4984 77.4694L44.1289 75.7916" stroke="#FFC60C" stroke-width="2.97" stroke-linecap="round" stroke-linejoin="round"/>
<path id="Vector_129" d="M47.5161 75.7005L45.6035 74.708" stroke="#FFC60C" stroke-width="2.97" stroke-linecap="round" stroke-linejoin="round"/>
<path id="Vector_130" d="M39.2969 79.4781L39.3135 77.4999" stroke="#FFC60C" stroke-width="2.97" stroke-linecap="round" stroke-linejoin="round"/>
<path id="Vector_131" d="M36.5781 79.9811L37.7743 77.7969" stroke="#FFC60C" stroke-width="2.97" stroke-linecap="round" stroke-linejoin="round"/>
<path id="Vector_132" d="M33.9863 80.0655L35.3624 77.6957" stroke="#FFC60C" stroke-width="2.97" stroke-linecap="round" stroke-linejoin="round"/>
<path id="Vector_133" d="M31.2578 79.9238L32.7705 77.5978" stroke="#FFC60C" stroke-width="2.97" stroke-linecap="round" stroke-linejoin="round"/>
<path id="Vector_134" d="M28.6621 79.5457L30.0882 77.4999" stroke="#FFC60C" stroke-width="2.97" stroke-linecap="round" stroke-linejoin="round"/>
<path id="Vector_135" d="M26.7891 78.9751L28.2085 76.6525" stroke="#FFC60C" stroke-width="2.97" stroke-linecap="round" stroke-linejoin="round"/>
<path id="Vector_136" d="M24.873 78.543L26.2425 75.8052" stroke="#FFC60C" stroke-width="2.97" stroke-linecap="round" stroke-linejoin="round"/>
<path id="Vector_137" d="M22.8105 77.4256L24.2333 75.2853" stroke="#FFC60C" stroke-width="2.97" stroke-linecap="round" stroke-linejoin="round"/>
<path id="Vector_138" d="M20.5645 76.0314L21.8939 73.7999" stroke="#FFC60C" stroke-width="2.97" stroke-linecap="round" stroke-linejoin="round"/>
</g>
</g>
</g>
</g>
</g>
</g>
</g>
<defs>
<clipPath id="clip0_2312_9325">
<rect width="100" height="100" fill="white"/>
</clipPath>
</defs>
</svg>
